{
  "accessors": [
    {
      "bufferView": 2,
      "componentType": 5126,
      "count": 18689,
      "max": [
        0.18891100585460663,
        0.05493300035595894,
        0.1779710054397583
      ],
      "min": [
        -0.11779999732971191,
        -0.06477399915456772,
        0.0006230000290088356
      ],
      "type": "VEC3"
    },
    {
      "bufferView": 2,
      "byteOffset": 224268,
      "componentType": 5126,
      "count": 18689,
      "max": [
        0.9999294877052307,
        0.9999679923057556,
        0.999980092048645
      ],
      "min": [
        -0.9999668598175049,
        -0.9999958872795105,
        -0.9999996423721313
      ],
      "type": "VEC3"
    },
    {
      "bufferView": 3,
      "componentType": 5126,
      "count": 18689,
      "max": [
        0.9999800324440002,
        0.9999998807907104,
        0.9999842643737793,
        1.0
      ],
      "min": [
        -0.999825119972229,
        -0.9995517730712891,
        -0.9999154210090637,
        -1.0
      ],
      "type": "VEC4"
    },
    {
      "bufferView": 1,
      "componentType": 5126,
      "count": 18689,
      "max": [
        0.9960939884185791,
        0.9905549883842468
      ],
      "min": [
        0.0039059999398887157,
        0.0039059999398887157
      ],
      "type": "VEC2"
    },
    {
      "bufferView": 0,
      "componentType": 5125,
      "count": 95382,
      "type": "SCALAR"
    }
  ],
  "asset": {
    "extras": {
      "author": "Switch 3D (https://sketchfab.com/switch3d)",
      "license": "CC-BY-4.0 (http://creativecommons.org/licenses/by/4.0/)",
      "source": "https://sketchfab.com/3d-models/free-air-jordan-13-retro-court-purple-sneaker-2be992830a78480bb1d0f25be2f45c1a",
      "title": "[FREE] Air Jordan 13 Retro Court Purple Sneaker"
    },
    "generator": "Sketchfab-12.42.0",
    "version": "2.0"
  },
  "bufferViews": [
    {
      "buffer": 0,
      "byteLength": 381528,
      "name": "floatBufferViews",
      "target": 34963
    },
    {
      "buffer": 0,
      "byteLength": 149512,
      "byteOffset": 381528,
      "byteStride": 8,
      "name": "floatBufferViews",
      "target": 34962
    },
    {
      "buffer": 0,
      "byteLength": 448536,
      "byteOffset": 531040,
      "byteStride": 12,
      "name": "floatBufferViews",
      "target": 34962
    },
    {
      "buffer": 0,
      "byteLength": 299024,
      "byteOffset": 979576,
      "byteStride": 16,
      "name": "floatBufferViews",
      "target": 34962
    }
  ],
  "buffers": [
    {
      "byteLength": 1278600,
      "uri": "scene.bin"
    }
  ],
  "images": [
    {
      "uri": "textures/M_AJ13CP_LOW_SG_baseColor.png"
    },
    {
      "uri": "textures/M_AJ13CP_LOW_SG_metallicRoughness.png"
    },
    {
      "uri": "textures/M_AJ13CP_LOW_SG_normal.png"
    }
  ],
  "materials": [
    {
      "doubleSided": true,
      "name": "M_AJ13CP_LOW_SG",
      "normalTexture": {
        "index": 2
      },
      "occlusionTexture": {
        "index": 1
      },
      "pbrMetallicRoughness": {
        "baseColorTexture": {
          "index": 0
        },
        "metallicRoughnessTexture": {
          "index": 1
        }
      }
    }
  ],
  "meshes": [
    {
      "name": "Object_0",
      "primitives": [
        {
          "attributes": {
            "NORMAL": 1,
            "POSITION": 0,
            "TANGENT": 2,
            "TEXCOORD_0": 3
          },
          "indices": 4,
          "material": 0,
          "mode": 4
        }
      ]
    }
  ],
  "nodes": [
    {
      "children": [
        1
      ],
      "matrix": [
        1.0,
        0.0,
        0.0,
        0.0,
        0.0,
        2.220446049250313e-16,
        -1.0,
        0.0,
        0.0,
        1.0,
        2.220446049250313e-16,
        0.0,
        0.0,
        0.0,
        0.0,
        1.0
      ],
      "name": "Sketchfab_model"
    },
    {
      "children": [
        2
      ],
      "name": "20220121_AJ13_CourtPurple.obj.cleaner.materialmerger.gles"
    },
    {
      "mesh": 0,
      "name": "Object_2"
    }
  ],
  "samplers": [
    {
      "magFilter": 9729,
      "minFilter": 9987,
      "wrapS": 10497,
      "wrapT": 10497
    }
  ],
  "scene": 0,
  "scenes": [
    {
      "name": "Sketchfab_Scene",
      "nodes": [
        0
      ]
    }
  ],
  "textures": [
    {
      "sampler": 0,
      "source": 0
    },
    {
      "sampler": 0,
      "source": 1
    },
    {
      "sampler": 0,
      "source": 2
    }
  ]
}
